# File created by Blade
# Date/Time:  Wed Sep 24 19:10:19 2014
# Frame Rate: 120.000 fps
#------------------------------------------------------
:FULLY-SPECIFIED
:DEGREES
3782
root -7.278208 32.863634 -3.590604 39.806280 2.042023 4.089889
Spine -24.694488 15.617901 2.456926
Head -13.761696 26.238736 -11.625268
LeftShoulder -12.451272 22.495195 9.261267
LeftArm 12.545140 -26.425059 -86.466660
LeftForeArm 0.559621 -0.000000 112.313451
LeftHand -31.701422 -0.000000 35.004488
LeftHandThumb1 -26.253704 0.000000 33.147579
RightShoulder -17.158153 8.501603 -23.379378
RightArm -13.757682 -25.857388 72.942228
RightForeArm -22.674447 -0.000000 40.534711
RightHand -3.739935 0.000000 9.481177
RightHandThumb1 -24.326973 -0.000000 -32.862282
LeftUpLeg 1.709151 21.512700 5.048349
LeftLeg 92.677885 -0.000000 -0.000000
LeftFoot 32.940891 19.489011 -23.022527
LeftToeBase 9.393560 -0.000000 -0.000000
RightUpLeg -43.423399 -3.910917 4.599683
RightLeg 13.694578 -0.000000 -0.000000
RightFoot -12.304328 -14.218218 -10.471076
RightToeBase -4.159959 -0.000000 0.000000
3783
root -7.269316 32.848438 -3.575544 39.904740 1.819734 3.765958
Spine -24.863602 15.824318 2.642258
Head -13.564671 26.328814 -11.445383
LeftShoulder -12.520035 22.586368 9.278046
LeftArm 12.336196 -26.409337 -86.499974
LeftForeArm 0.636833 -0.000000 112.633388
LeftHand -31.711773 -0.000000 35.143783
LeftHandThumb1 -26.253704 0.000000 33.147579
RightShoulder -17.205312 8.471148 -23.293630
RightArm -13.564333 -25.765100 72.624676
RightForeArm -22.748069 -0.000000 40.739448
RightHand -3.761833 -0.000000 9.387702
RightHandThumb1 -24.326973 -0.000000 -32.862282
LeftUpLeg 1.874831 22.490873 4.946814
LeftLeg 93.699951 -0.000000 -0.000000
LeftFoot 33.022108 19.543898 -23.158412
LeftToeBase 9.182873 -0.000000 -0.000000
RightUpLeg -43.456831 -3.635959 4.766665
RightLeg 13.602546 -0.000000 -0.000000
RightFoot -12.311241 -14.029770 -10.451805
RightToeBase -4.171760 -0.000000 0.000000
3784
root -7.263801 32.834634 -3.559524 40.012411 1.639976 3.485061
Spine -25.046085 15.939974 2.797462
Head -13.397366 26.455173 -11.200538
LeftShoulder -12.629428 22.692359 9.301478
LeftArm 12.176269 -26.413016 -86.532432
LeftForeArm 0.534510 -0.000000 112.904443
LeftHand -31.609608 -0.000000 34.998243
LeftHandThumb1 -26.253704 0.000000 33.147579
RightShoulder -17.253629 8.468859 -23.180245
RightArm -13.385022 -25.606775 72.304005
RightForeArm -22.875195 -0.000000 40.919109
RightHand -3.666044 0.000000 9.423271
RightHandThumb1 -24.326973 -0.000000 -32.862282
LeftUpLeg 2.056551 23.410931 4.891087
LeftLeg 94.800650 -0.000000 -0.000000
LeftFoot 33.052491 19.532022 -23.196684
LeftToeBase 9.351652 -0.000000 -0.000000
RightUpLeg -43.495446 -3.401290 4.917531
RightLeg 13.518383 -0.000000 -0.000000
RightFoot -12.309210 -13.849250 -10.442591
RightToeBase -4.255648 -0.000000 0.000000
3785
root -7.262338 32.821075 -3.542553 40.097058 1.514713 3.209981
Spine -25.202619 16.047316 2.968243
Head -13.250406 26.552939 -10.967646
LeftShoulder -12.693553 22.805424 9.333642
LeftArm 12.077309 -26.433982 -86.567679
LeftForeArm 0.521185 -0.000000 113.143394
LeftHand -31.674941 0.000000 34.961294
LeftHandThumb1 -26.253704 0.000000 33.147579
RightShoulder -17.323475 8.452033 -23.063501
RightArm -13.257713 -25.477566 72.009170
RightForeArm -22.964048 -0.000000 41.145454
RightHand -3.713754 -0.000000 9.293433
RightHandThumb1 -24.326973 -0.000000 -32.862282
LeftUpLeg 2.279712 24.281267 4.917343
LeftLeg 95.957229 -0.000000 -0.000000
LeftFoot 33.289919 19.500050 -23.373083
LeftToeBase 8.846852 -0.000000 -0.000000
RightUpLeg -43.504310 -3.209088 5.107124
RightLeg 13.426902 -0.000000 -0.000000
RightFoot -12.320432 -13.698371 -10.453525
RightToeBase -4.249759 -0.000000 0.000000
